<svg xmlns="http://www.w3.org/2000/svg" width="271.396" height="70.658" viewBox="0 0 271.396 70.658">
  <path id="Unión_1" data-name="Unión 1" d="M-3264.414-242.075v-45.86a5.727,5.727,0,0,1,5.732-5.733,5.729,5.729,0,0,1,5.733,5.733v45.86a5.729,5.729,0,0,1-5.733,5.733A5.727,5.727,0,0,1-3264.414-242.075Zm-22.931.686v-60.564c0-2.791,2.563-5.047,5.732-5.047s5.734,2.256,5.734,5.047v60.564c0,2.791-2.563,5.047-5.734,5.047S-3287.345-238.6-3287.345-241.389Zm-22.655-.686V-282.2a5.728,5.728,0,0,1,5.732-5.732,5.728,5.728,0,0,1,5.734,5.732v40.128a5.729,5.729,0,0,1-5.734,5.733A5.728,5.728,0,0,1-3310-242.075Zm228.821.161c-4.417-.336-7.152-1.92-7.344-6.144-.1-2.015-.1-5.567-.1-9.455,0-5.856.048-12.384.144-15.408.1-3.84,2.592-5.856,6.48-6.048.864-.048,3.6-.1,6.288-.1,2.736,0,5.376.049,6.1.1a2.558,2.558,0,0,1,2.688,2.544,2.642,2.642,0,0,1-2.832,2.591s-4.272-.048-7.536-.048c-4.8,0-5.809.1-5.953,2.16-.1,1.152-.048,3.5-.1,6.288,0,.96.048.96,5.952.96,2.208,0,4.512,0,5.376-.049a2.417,2.417,0,0,1,2.688,2.544,2.543,2.543,0,0,1-2.544,2.736h-.239c-1.2-.1-3.024-.144-4.848-.144-5.952,0-6.432.048-6.432,1.056,0,7.152.049,8.257.144,9.072.24,2.208,1.008,2.3,7.776,2.3,2.832,0,5.9-.048,6.816-.1h.24a2.435,2.435,0,0,1,2.592,2.449c0,1.3-.959,2.592-3.024,2.687-.624.049-3.407.1-6.192.1C-3077.772-241.817-3080.556-241.865-3081.18-241.914Zm-70.177-12.24a11.823,11.823,0,0,1,12.1-12.144,11.783,11.783,0,0,1,12.048,12.144c0,7.249-5.184,12.145-12.048,12.145A11.685,11.685,0,0,1-3151.356-254.154Zm4.848,0c0,4.7,3.264,7.632,7.248,7.632s7.2-2.928,7.2-7.632c0-4.752-3.263-7.728-7.2-7.728S-3146.508-258.906-3146.508-254.154Zm-19.44,3.888c0-2.784.1-7.583.1-9.7v-.72c0-.624-.288-.672-.769-.672h-1.44a2.181,2.181,0,0,1-2.16-2.3,2.1,2.1,0,0,1,2.16-2.208h1.392c.768,0,.816-.144.816-.816,0,0,.048-.959.048-2.064,0-.576,0-1.152-.048-1.68v-.144a2.181,2.181,0,0,1,2.4-2.16c2.544,0,2.544,2.3,2.544,2.929,0,1.3-.1,3.119-.1,3.119,0,.769.193.816.672.816h3.216A2.074,2.074,0,0,1-3155-263.61a2.1,2.1,0,0,1-2.112,2.256h-3.168c-.72,0-.72.24-.72.528,0,1.776-.144,5.855-.144,9.023,0,3.744.144,5.28,2.832,5.28a9.453,9.453,0,0,0,1.1-.1c.144,0,.239-.049.383-.049a2.057,2.057,0,0,1,2.065,2.112c0,1.728-1.584,2.544-4.081,2.544C-3165.948-242.009-3165.948-248.3-3165.948-250.266Zm-72.624-3.888a11.822,11.822,0,0,1,12.1-12.144,11.783,11.783,0,0,1,12.047,12.144c0,7.249-5.184,12.145-12.047,12.145A11.684,11.684,0,0,1-3238.572-254.154Zm4.847,0c0,4.7,3.264,7.632,7.249,7.632s7.2-2.928,7.2-7.632c0-4.752-3.264-7.728-7.2-7.728S-3233.724-258.906-3233.724-254.154Zm53.232,9.648c0-3.983.048-9.455.048-13.824,0-2.16,0-4.08-.048-5.376a2.357,2.357,0,0,1,2.592-2.448,2.357,2.357,0,0,1,2.544,2.3v.1c-.049,1.967-.1,5.759-.1,9.792,0,3.312.048,6.719.1,9.36v.1a2.428,2.428,0,0,1-2.592,2.448A2.389,2.389,0,0,1-3180.492-244.506Zm59.376-.048v-.1c.144-4.559.193-7.727.193-10.56,0-2.88-.049-5.376-.144-8.592v-.1a2.376,2.376,0,0,1,2.592-2.16,2.264,2.264,0,0,1,2.448,2.255c0,.192-.049.337-.049.48v.193c0,.1,0,.144.049.144a.586.586,0,0,0,.192-.192,8.862,8.862,0,0,1,6.144-2.929,2.256,2.256,0,0,1,2.352,2.3,2.731,2.731,0,0,1-2.736,2.64c-2.832.288-6,2.641-6.144,5.665-.048.864-.048,1.872-.048,3.168,0,1.872.048,4.271.144,7.68a2.267,2.267,0,0,1-2.448,2.448A2.369,2.369,0,0,1-3121.116-244.553Zm-71.9-.048v-.049c.048-1.967.1-5.616.1-8.544,0-1.92-.049-3.552-.1-4.32-.192-2.976-1.872-4.176-3.888-4.176-2.928,0-6.432,2.592-6.576,5.808-.048.864-.048,1.968-.048,3.312,0,1.968.048,4.512.144,7.92a2.266,2.266,0,0,1-2.448,2.448,2.369,2.369,0,0,1-2.544-2.352v-.1c.144-4.559.193-7.727.193-10.56,0-2.88-.049-5.376-.144-8.592v-.1a2.376,2.376,0,0,1,2.592-2.16,2.264,2.264,0,0,1,2.448,2.255c0,.192-.049.337-.049.48v.145c0,.048,0,.1.049.1s.144-.1.239-.192a9.294,9.294,0,0,1,6.817-2.88,7.847,7.847,0,0,1,8.112,8.016c.048,1.728.144,6,.144,9.552,0,1.488,0,2.832-.048,3.839a2.427,2.427,0,0,1-2.5,2.544A2.394,2.394,0,0,1-3193.02-244.6Zm132.96-.24v-.049c.1-5.711.049-22.991.193-28.031.1-3.84,2.592-5.856,6.48-6.048.864-.048,3.551-.1,6.143-.1,2.641,0,5.233.049,5.953.1a2.558,2.558,0,0,1,2.687,2.544,2.642,2.642,0,0,1-2.831,2.591s-4.176-.048-7.344-.048c-4.608,0-5.712.1-5.856,2.16-.1,1.152-.048,3.6-.1,6.385,0,.959.049.959,5.665.959,2.064,0,4.176,0,5.04-.048a2.416,2.416,0,0,1,2.688,2.543,2.543,2.543,0,0,1-2.543,2.736h-.24c-1.2-.1-2.88-.143-4.608-.143-5.328,0-6.048,0-6.048,1.056,0,2.88.048,8.688.048,11.759v1.728a2.617,2.617,0,0,1-2.784,2.4A2.4,2.4,0,0,1-3060.06-244.841Zm-121.248-30.816a3.258,3.258,0,0,1,3.361-3.264,3.382,3.382,0,0,1,3.36,3.264,3.346,3.346,0,0,1-3.36,3.408A3.187,3.187,0,0,1-3181.308-275.657Z" transform="translate(3310 307)" fill="#fff"/>
</svg>
