<svg xmlns="http://www.w3.org/2000/svg" width="273.316" height="70.658" viewBox="0 0 273.316 70.658">
  <g id="Grupo_9" data-name="Grupo 9" transform="translate(-463.684 -144.73)">
    <g id="Grupo_8" data-name="Grupo 8" transform="translate(-309 49.511)">
      <path id="Trazado_21" data-name="Trazado 21" d="M44.733,87.093A5.727,5.727,0,0,1,39,81.361V41.233a5.733,5.733,0,1,1,11.465,0V81.361A5.727,5.727,0,0,1,44.733,87.093Z" transform="translate(733.684 78.783)" fill="#fff"/>
      <path id="Trazado_22" data-name="Trazado 22" d="M52.733,101.158c-3.17,0-5.733-2.256-5.733-5.047V35.547c0-2.791,2.562-5.047,5.733-5.047s5.733,2.256,5.733,5.047V96.111C58.465,98.9,55.9,101.158,52.733,101.158Z" transform="translate(748.339 64.718)" fill="#fff"/>
      <path id="Trazado_23" data-name="Trazado 23" d="M56.733,91.826A5.727,5.727,0,0,1,51,86.093V40.233a5.733,5.733,0,0,1,11.465,0V86.093A5.727,5.727,0,0,1,56.733,91.826Z" transform="translate(767.269 74.05)" fill="#fff"/>
    </g>
    <text id="onitor_EF" data-name="onitor EF" transform="translate(533 209)" fill="#fff" font-size="48" font-family="TsukuARdGothic-Bold, Tsukushi A Round Gothic" font-weight="700"><tspan x="0" y="0">onitor EF</tspan></text>
  </g>
</svg>
