<svg xmlns="http://www.w3.org/2000/svg" xmlns:xlink="http://www.w3.org/1999/xlink" width="481" height="516" viewBox="0 0 481 516">
  <defs>
    <clipPath id="clip-path">
      <rect id="Rectángulo_7" data-name="Rectángulo 7" width="481" height="516" rx="4" transform="translate(282.016 82.834)" fill="#fff" stroke="#707070" stroke-width="1"/>
    </clipPath>
  </defs>
  <g id="Enmascarar_grupo_1" data-name="Enmascarar grupo 1" transform="translate(-282.016 -82.834)" clip-path="url(#clip-path)">
    <g id="_011-human-body" data-name="011-human-body" transform="translate(336.958 82.056)">
      <g id="Grupo_1" data-name="Grupo 1" transform="translate(19.489 17.233)">
        <path id="Trazado_1" data-name="Trazado 1" d="M349.165,138.214a54.716,54.716,0,0,0,6.279,3.085c.148.06.305.112.462.172a56.815,56.815,0,0,0,42.046,0c.148-.06.305-.112.462-.172a52.717,52.717,0,0,0,6.279-3.085A60.815,60.815,0,0,0,434.685,85.35c0-33.252-25.916-60.317-57.756-60.317S319.173,52.1,319.173,85.35A60.815,60.815,0,0,0,349.165,138.214Z" transform="translate(-190.147 -25.033)" fill="#41d3bd"/>
        <path id="Trazado_2" data-name="Trazado 2" d="M452.9,296.426a8.648,8.648,0,0,1-1.551-2.24l-27.574-57.594c-7.03-14.683-21.172-23.808-36.889-23.808H344.213a72.431,72.431,0,0,1-67.987,0H233.553c-15.718,0-29.86,9.125-36.9,23.817l-27.574,57.594a8.312,8.312,0,0,1-1.122,1.749L123.438,350.2,145.2,372.933l51.138-53.406L228.8,260.21a8.075,8.075,0,0,1,9.282-4.058,8.568,8.568,0,0,1,6.13,8.332v129.25a9.037,9.037,0,0,1-.314,2.361L197.4,566.068h57.1l47.789-174.695a8.163,8.163,0,0,1,15.875,0l47.789,174.695h57.1l-46.5-169.973a9.037,9.037,0,0,1-.314-2.361V264.483a8.568,8.568,0,0,1,6.13-8.332,8.088,8.088,0,0,1,9.282,4.058l32.294,59.024L474.8,364.765l21.774-22.731ZM351.474,324.8H326.721a8.042,8.042,0,0,1-5.833-2.525l-10.668-11.141-10.668,11.141a8.042,8.042,0,0,1-5.833,2.525H268.966V307.567H290.3l11.667-12.184V255.867h16.5v39.516l11.667,12.184h21.337Z" transform="translate(-123.438 -83.533)" fill="#41d3bd"/>
      </g>
      <g id="Grupo_2" data-name="Grupo 2">
        <path id="Trazado_3" data-name="Trazado 3" d="M455.44,218.924l-26.98-56.336c-9.851-20.568-29.637-33.338-51.65-33.338H355.333A79.071,79.071,0,0,0,374.4,77.55C374.4,34.786,341.092,0,300.143,0s-74.257,34.786-74.257,77.55a79.071,79.071,0,0,0,19.068,51.7H223.477c-22.013,0-41.8,12.77-51.658,33.338L144.7,219.226,95.862,278.75a8.883,8.883,0,0,0,.429,11.693l33,34.467a8,8,0,0,0,11.667,0l57.756-60.317a8.653,8.653,0,0,0,1.328-1.818l17.591-32.14v95.594L168.444,506.015a8.96,8.96,0,0,0,1.345,7.557A8.158,8.158,0,0,0,176.381,517h74.257a8.32,8.32,0,0,0,7.937-6.256L300.143,358.8l41.568,151.955A8.322,8.322,0,0,0,349.648,517h74.257a8.173,8.173,0,0,0,6.592-3.421,8.96,8.96,0,0,0,1.345-7.557l-49.191-179.8V230.635l17.591,32.14a8.411,8.411,0,0,0,1.8,2.266l57.756,51.7a7.993,7.993,0,0,0,11.2-.448l33-34.467a8.879,8.879,0,0,0,0-12.184Zm-41.584,34.01L381.562,193.91a8.088,8.088,0,0,0-9.282-4.058,8.568,8.568,0,0,0-6.13,8.332v129.25a9.037,9.037,0,0,0,.314,2.361l46.5,169.973h-57.1L308.081,325.073a8.163,8.163,0,0,0-15.875,0L244.418,499.768h-57.1l46.5-169.973a9.037,9.037,0,0,0,.314-2.361V198.184a8.568,8.568,0,0,0-6.13-8.332,8.075,8.075,0,0,0-9.282,4.058l-32.459,59.317-51.138,53.406-21.766-22.739,44.521-54.259a8.539,8.539,0,0,0,1.122-1.749l27.574-57.594c7.038-14.683,21.18-23.808,36.9-23.808H266.15a72.431,72.431,0,0,0,67.987,0H376.81c15.718,0,29.86,9.125,36.9,23.817l27.574,57.594a8.451,8.451,0,0,0,1.551,2.24l43.663,45.6-21.774,22.731ZM242.388,77.55c0-33.252,25.916-60.317,57.756-60.317S357.9,44.3,357.9,77.55a60.815,60.815,0,0,1-29.992,52.863,54.722,54.722,0,0,1-6.279,3.085c-.149.06-.305.112-.462.172a56.816,56.816,0,0,1-42.046,0c-.149-.06-.305-.112-.462-.172a52.719,52.719,0,0,1-6.279-3.085A60.815,60.815,0,0,1,242.388,77.55Z" transform="translate(-93.873)" fill="#11222b"/>
        <path id="Trazado_4" data-name="Trazado 4" d="M393.712,314.883V275.367h-16.5v39.516l-11.667,12.184H344.207V344.3h24.752a8.042,8.042,0,0,0,5.833-2.525l10.668-11.141,10.668,11.141a8.042,8.042,0,0,0,5.833,2.525h24.752V327.067H405.378Z" transform="translate(-179.191 -85.799)" fill="#11222b"/>
      </g>
    </g>
  </g>
</svg>
