<svg xmlns="http://www.w3.org/2000/svg" xmlns:xlink="http://www.w3.org/1999/xlink" width="554" height="594" viewBox="0 0 554 594">
  <defs>
    <clipPath id="clip-path">
      <rect id="Rectángulo_7" data-name="Rectángulo 7" width="554" height="594" rx="4" transform="translate(-0.391 -0.148)" fill="#fff" stroke="#707070" stroke-width="1"/>
    </clipPath>
  </defs>
  <g id="Grupo_33" data-name="Grupo 33" transform="translate(-490 -545)">
    <g id="Enmascarar_grupo_1" data-name="Enmascarar grupo 1" transform="translate(490.392 545.148)" clip-path="url(#clip-path)">
      <g id="_011-human-body" data-name="011-human-body" transform="translate(63.34 -0.873)">
        <g id="Grupo_1" data-name="Grupo 1" transform="translate(22.446 19.849)">
          <path id="Trazado_1" data-name="Trazado 1" d="M353.717,155.391a63.024,63.024,0,0,0,7.232,3.553c.171.069.352.129.532.2a65.438,65.438,0,0,0,48.427,0c.171-.069.352-.129.532-.2a60.719,60.719,0,0,0,7.232-3.553c20.565-11.83,34.543-34.686,34.543-60.886,0-38.3-29.849-69.471-66.521-69.471S319.173,56.206,319.173,94.5C319.173,120.7,333.152,143.561,353.717,155.391Z" transform="translate(-170.565 -25.033)" fill="#41d3bd"/>
          <path id="Trazado_2" data-name="Trazado 2" d="M502.9,309.12a9.961,9.961,0,0,1-1.787-2.58L469.357,240.2c-8.1-16.911-24.385-27.421-42.488-27.421h-49.15a83.424,83.424,0,0,1-78.3,0h-49.15c-18.1,0-34.391,10.51-42.5,27.431l-31.759,66.335a9.573,9.573,0,0,1-1.292,2.015l-51.278,62.494,25.069,26.181,58.9-61.512,37.385-68.32a9.3,9.3,0,0,1,10.691-4.674,9.869,9.869,0,0,1,7.061,9.6V421.2a10.409,10.409,0,0,1-.361,2.719L208.623,619.685h65.761l55.041-201.208a9.4,9.4,0,0,1,18.284,0L402.75,619.685h65.761L414.952,423.916a10.408,10.408,0,0,1-.361-2.719V272.33a9.869,9.869,0,0,1,7.061-9.6,9.315,9.315,0,0,1,10.691,4.674l37.195,67.982,58.586,52.441L553.2,361.65ZM386.082,341.8H357.573a9.263,9.263,0,0,1-6.719-2.908l-12.287-12.832-12.287,12.832a9.263,9.263,0,0,1-6.719,2.908H291.052V321.952h24.575l13.437-14.033V262.405H348.07v45.513l13.437,14.033h24.575Z" transform="translate(-123.438 -63.917)" fill="#41d3bd"/>
        </g>
        <g id="Grupo_2" data-name="Grupo 2">
          <path id="Trazado_3" data-name="Trazado 3" d="M510.314,252.15l-31.075-64.886c-11.347-23.69-34.135-38.4-59.489-38.4H395.014A91.071,91.071,0,0,0,416.976,89.32C416.976,40.065,378.612,0,331.449,0s-85.527,40.065-85.527,89.32a91.071,91.071,0,0,0,21.961,59.547H243.147c-25.354,0-48.142,14.708-59.5,38.4L152.412,252.5,96.164,321.055a10.232,10.232,0,0,0,.494,13.467l38.012,39.7a9.21,9.21,0,0,0,13.437,0l66.521-69.471a9.967,9.967,0,0,0,1.53-2.094l20.26-37.018v110.1L179.762,582.812a10.32,10.32,0,0,0,1.549,8.7,9.4,9.4,0,0,0,7.593,3.95h85.527a9.583,9.583,0,0,0,9.142-7.205l47.876-175.007L379.325,588.27a9.585,9.585,0,0,0,9.142,7.2h85.527a9.413,9.413,0,0,0,7.593-3.94,10.32,10.32,0,0,0,1.549-8.7L426.479,375.739v-110.1l20.26,37.018a9.687,9.687,0,0,0,2.072,2.61l66.521,59.547a9.206,9.206,0,0,0,12.9-.516l38.012-39.7a10.227,10.227,0,0,0,0-14.033Zm-47.9,39.172-37.195-67.982a9.316,9.316,0,0,0-10.691-4.674,9.869,9.869,0,0,0-7.061,9.6V377.128a10.409,10.409,0,0,0,.361,2.719l53.559,195.769H395.632L340.59,374.409a9.4,9.4,0,0,0-18.284,0L267.265,575.617H201.5l53.559-195.769a10.409,10.409,0,0,0,.361-2.719V228.262a9.869,9.869,0,0,0-7.061-9.6,9.3,9.3,0,0,0-10.691,4.674l-37.385,68.32-58.9,61.512L116.319,326.98,167.6,264.486a9.835,9.835,0,0,0,1.292-2.015l31.759-66.335c8.106-16.911,24.394-27.421,42.5-27.421H292.3a83.424,83.424,0,0,0,78.3,0h49.15c18.1,0,34.391,10.51,42.5,27.431l31.759,66.335a9.733,9.733,0,0,0,1.787,2.58l50.29,52.52-25.078,26.181Zm-197.492-202c0-38.3,29.849-69.471,66.521-69.471S397.97,51.021,397.97,89.32c0,26.2-13.979,49.056-34.543,60.886a63.027,63.027,0,0,1-7.232,3.553c-.171.069-.352.129-.532.2a65.438,65.438,0,0,1-48.427,0c-.171-.069-.352-.129-.532-.2a60.717,60.717,0,0,1-7.232-3.553C278.906,138.376,264.927,115.52,264.927,89.32Z" transform="translate(-93.873)" fill="#11222b"/>
          <path id="Trazado_4" data-name="Trazado 4" d="M401.225,320.88V275.367H382.219V320.88l-13.437,14.033H344.207v19.849h28.509a9.263,9.263,0,0,0,6.719-2.908l12.287-12.832,12.287,12.832a9.263,9.263,0,0,0,6.719,2.908h28.509V334.913H414.662Z" transform="translate(-154.147 -57.029)" fill="#11222b"/>
        </g>
      </g>
    </g>
    <g id="Grupo_3" data-name="Grupo 3" transform="translate(664.33 897.472)">
      <g id="Rectángulo_8" data-name="Rectángulo 8" transform="translate(-0.33 -0.472)" fill="#fff" stroke="#56606f" stroke-width="1">
        <rect width="95" height="32" rx="4" stroke="none"/>
        <rect x="0.5" y="0.5" width="94" height="31" rx="3.5" fill="none"/>
      </g>
      <text id="Cadera" transform="translate(14.67 7.528)" fill="#56606f" font-size="18" font-family="Arial-BoldMT, Arial" font-weight="700"><tspan x="0" y="16">Cadera</tspan></text>
    </g>
    <g id="Grupo_5" data-name="Grupo 5" transform="translate(870.392 704.918)">
      <g id="Grupo_4" data-name="Grupo 4" transform="translate(0.608 0.082)">
        <g id="Rectángulo_9" data-name="Rectángulo 9" fill="#fff" stroke="#56606f" stroke-width="1">
          <rect width="151" height="41" rx="4" stroke="none"/>
          <rect x="0.5" y="0.5" width="150" height="40" rx="3.5" fill="none"/>
        </g>
        <text id="M._Superiores" data-name="M. Superiores" transform="translate(9 9)" fill="#56606f" font-size="18" font-family="Arial-BoldMT, Arial" font-weight="700"><tspan x="6.985" y="16">M. Superiores</tspan></text>
      </g>
    </g>
    <g id="Grupo_6" data-name="Grupo 6" transform="translate(617.392 999.148)">
      <g id="Grupo_4-2" data-name="Grupo 4">
        <g id="Rectángulo_9-2" data-name="Rectángulo 9" transform="translate(-0.392 -0.148)" fill="#fff" stroke="#56606f" stroke-width="1">
          <rect width="136" height="33" rx="4" stroke="none"/>
          <rect x="0.5" y="0.5" width="135" height="32" rx="3.5" fill="none"/>
        </g>
        <text id="M._Inferiores" data-name="M. Inferiores" transform="translate(7.608 6.852)" fill="#56606f" font-size="18" font-family="Arial-BoldMT, Arial" font-weight="700"><tspan x="7.988" y="16">M. Inferiores</tspan></text>
      </g>
    </g>
    <g id="Grupo_7" data-name="Grupo 7" transform="translate(740.473 849.155)">
      <g id="Grupo_4-3" data-name="Grupo 4">
        <g id="Rectángulo_9-3" data-name="Rectángulo 9" transform="translate(-0.473 -0.155)" fill="#fff" stroke="#56606f" stroke-width="1">
          <rect width="111" height="33" rx="4" stroke="none"/>
          <rect x="0.5" y="0.5" width="110" height="32" rx="3.5" fill="none"/>
        </g>
        <text id="Abdomen" transform="translate(13.527 4.845)" fill="#56606f" font-size="18" font-family="Arial-BoldMT, Arial" font-weight="700"><tspan x="0" y="16">Abdomen</tspan></text>
      </g>
    </g>
  </g>
</svg>
